<svg width="12" height="12" viewBox="0 0 12 12" fill="none" xmlns="http://www.w3.org/2000/svg">
<path d="M10.0631 6.38083C10.0842 6.19342 10.0994 6.00608 10.0969 5.80726C10.0944 5.60845 10.0745 5.42155 10.0488 5.23472L11.2705 4.25442C11.3805 4.16531 11.4078 4.00706 11.336 3.8793L10.1411 1.87073C10.1059 1.81083 10.0505 1.76543 9.98481 1.74268C9.91915 1.71993 9.84753 1.7213 9.7828 1.74656L8.3341 2.34956C8.0271 2.11947 7.69722 1.93061 7.33869 1.7889L7.09706 0.242098C7.08652 0.173419 7.05129 0.110943 6.99797 0.0663888C6.94465 0.0218347 6.87691 -0.00173648 6.80745 9.62212e-05L4.46845 0.0294238C4.32226 0.0312568 4.20079 0.138051 4.185 0.278611L3.98223 1.83098C3.62737 1.98164 3.3024 2.18456 3.00119 2.41643L1.53783 1.84994C1.50378 1.83886 1.46816 1.83338 1.43236 1.83371C1.33295 1.83496 1.2342 1.88883 1.18275 1.98305L0.0386161 4.02095C-0.0357883 4.15055 0.00127637 4.30799 0.113479 4.39431L1.3594 5.34367C1.33835 5.53109 1.32323 5.72427 1.32565 5.91724C1.32807 6.11021 1.34803 6.30296 1.37377 6.48978L0.152044 7.47009C0.0420417 7.5592 0.0147838 7.71744 0.0865668 7.84521L1.28143 9.85378C1.31666 9.91368 1.37207 9.95907 1.43773 9.98183C1.50339 10.0046 1.57501 10.0032 1.63974 9.97795L3.08844 9.37494C3.39544 9.60503 3.72532 9.79389 4.08385 9.93561L4.32548 11.4824C4.34479 11.6225 4.4689 11.7262 4.61509 11.7244L6.95409 11.6951C7.10028 11.6932 7.22175 11.5865 7.23754 11.4459L7.44031 9.89352C7.79517 9.74286 8.12014 9.53994 8.42135 9.30808L9.88471 9.87457C9.91994 9.88583 9.9551 9.89123 9.99018 9.89079C10.0896 9.88955 10.1883 9.83567 10.2398 9.74145L11.3839 7.70356C11.4525 7.57403 11.4213 7.41652 11.3091 7.3302L10.0631 6.38083ZM8.8928 5.39543C8.91846 5.57641 8.92585 5.69913 8.92739 5.82193C8.92893 5.94472 8.91885 6.07352 8.90351 6.24916L8.82993 6.91095L9.35549 7.31375L9.99317 7.79702L9.59272 8.5097L8.84635 8.22079L8.23513 7.98282L7.71384 8.38705C7.46475 8.57732 7.22676 8.72067 6.98826 8.82308L6.37158 9.0823L6.2863 9.74424L6.17925 10.5351L5.3606 10.5454L5.2396 9.75736L5.13776 9.09777L4.51477 8.8541C4.26201 8.75199 4.02642 8.62043 3.79032 8.44794L3.25307 8.04529L2.63639 8.30451L1.89749 8.61204L1.4793 7.90962L2.10467 7.41052L2.61996 6.99467L2.52981 6.33493C2.51 6.15387 2.49661 6.01953 2.49515 5.90258C2.49368 5.78563 2.50369 5.65099 2.51903 5.47534L2.59261 4.81355L2.06705 4.41075L1.42937 3.92748L1.82982 3.2148L2.57619 3.50371L3.18741 3.74168L3.7087 3.33745C3.95779 3.14718 4.19578 3.00384 4.43428 2.90142L5.05096 2.64221L5.13624 1.98027L5.24329 1.18939L6.05609 1.1792L6.17709 1.96722L6.27894 2.62681L6.90192 2.87048C7.15469 2.97258 7.39027 3.10414 7.62637 3.27664L8.16363 3.67929L8.78031 3.42007L9.5192 3.11254L9.9374 3.81495L9.31795 4.31984L8.80265 4.73569L8.8928 5.39543ZM5.68194 3.52326C4.38965 3.53946 3.35607 4.59928 3.37227 5.89158C3.38848 7.18388 4.4483 8.21745 5.7406 8.20125C7.03289 8.18505 8.06647 7.12522 8.05027 5.83292C8.03406 4.54063 6.97424 3.50705 5.68194 3.52326ZM5.72593 7.03175C5.08271 7.03982 4.54984 6.52014 4.54177 5.87692C4.53371 5.23369 5.05338 4.70082 5.69661 4.69275C6.33983 4.68469 6.8727 5.20436 6.88077 5.84759C6.88883 6.49081 6.36916 7.02369 5.72593 7.03175Z" fill="#90909B"/>
</svg>
