<svg width="13" height="9" viewBox="0 0 13 9" fill="none" xmlns="http://www.w3.org/2000/svg">
<path d="M8.77193 3.50877C9.74269 3.50877 10.5205 2.72515 10.5205 1.75439C10.5205 0.783626 9.74269 0 8.77193 0C7.80117 0 7.01754 0.783626 7.01754 1.75439C7.01754 2.72515 7.80117 3.50877 8.77193 3.50877ZM4.09357 3.50877C5.06433 3.50877 5.84211 2.72515 5.84211 1.75439C5.84211 0.783626 5.06433 0 4.09357 0C3.12281 0 2.33918 0.783626 2.33918 1.75439C2.33918 2.72515 3.12281 3.50877 4.09357 3.50877ZM4.09357 4.67836C2.73099 4.67836 0 5.36257 0 6.72515V8.18713H8.18713V6.72515C8.18713 5.36257 5.45614 4.67836 4.09357 4.67836ZM8.77193 4.67836C8.60234 4.67836 8.40936 4.69006 8.20468 4.7076C8.88304 5.19883 9.35673 5.85965 9.35673 6.72515V8.18713H12.8655V6.72515C12.8655 5.36257 10.1345 4.67836 8.77193 4.67836Z" fill="black"/>
</svg>
