<svg width="60" height="60" viewBox="0 0 60 60" fill="none" xmlns="http://www.w3.org/2000/svg">
<path d="M25.3445 2.68785C28.2253 1.0246 31.7747 1.0246 34.6555 2.68785L51.3253 12.3121C54.2061 13.9754 55.9808 17.0492 55.9808 20.3757V39.6243C55.9808 42.9508 54.2061 46.0246 51.3253 47.6879L34.6555 57.3121C31.7747 58.9754 28.2253 58.9754 25.3445 57.3121L8.67474 47.6879C5.7939 46.0246 4.01924 42.9508 4.01924 39.6243V20.3757C4.01924 17.0492 5.7939 13.9754 8.67474 12.3121L25.3445 2.68785Z" fill="black" fill-opacity="0.2"/>
<path d="M25.5947 3.12109C28.3208 1.54721 31.6792 1.54721 34.4053 3.12109L51.0752 12.7451C53.8013 14.319 55.4805 17.2281 55.4805 20.376V39.624C55.4805 42.7719 53.8013 45.6809 51.0752 47.2549L34.4053 56.8789C31.6792 58.4528 28.3208 58.4528 25.5947 56.8789L8.9248 47.2549C6.19867 45.6809 4.51953 42.7719 4.51953 39.624V20.376C4.51953 17.2281 6.19867 14.319 8.9248 12.7451L25.5947 3.12109Z" stroke="white" stroke-opacity="0.08"/>
<path d="M30.0002 21.6668C30.4604 21.6668 30.8335 22.0399 30.8335 22.5001C30.8335 22.9603 30.4604 23.3334 30.0002 23.3334C28.6816 23.3334 27.3929 23.7248 26.2965 24.4573C25.2003 25.1898 24.3459 26.2307 23.8413 27.4488C23.3367 28.667 23.2041 30.0074 23.4613 31.3006C23.7185 32.5938 24.3535 33.7821 25.2858 34.7145C26.2182 35.6468 27.4065 36.2818 28.6997 36.539C29.9928 36.7962 31.3333 36.6635 32.5514 36.159C33.7695 35.6544 34.8105 34.8 35.543 33.7037C36.2755 32.6074 36.6668 31.3187 36.6668 30.0001C36.6668 29.5399 37.0399 29.1668 37.5002 29.1668C37.9604 29.1668 38.3335 29.5399 38.3335 30.0001C38.3335 31.6483 37.8446 33.2594 36.9289 34.6298C36.0132 36.0002 34.7121 37.0688 33.1895 37.6995C31.6667 38.3302 29.9907 38.4947 28.3742 38.1731C26.7578 37.8516 25.2728 37.0582 24.1074 35.8929C22.942 34.7275 22.1487 33.2425 21.8271 31.6261C21.5056 30.0096 21.67 28.3335 22.3008 26.8108C22.9315 25.2882 24.0001 23.9871 25.3704 23.0714C26.7408 22.1557 28.352 21.6668 30.0002 21.6668ZM28.6216 25.1938C29.064 25.0669 29.5258 25.3227 29.6527 25.7651C29.7795 26.2075 29.5238 26.6693 29.0814 26.7962L28.8779 26.8613C28.4098 27.0286 27.9841 27.2988 27.6328 27.6531C27.2314 28.0581 26.9405 28.5595 26.7881 29.109C26.6357 29.6586 26.6265 30.2388 26.762 30.7928C26.8976 31.3465 27.1733 31.8561 27.562 32.2731C27.9509 32.6901 28.4406 33.0009 28.9837 33.1748C29.5269 33.3486 30.1062 33.3804 30.665 33.2667C31.2238 33.153 31.7443 32.8976 32.1763 32.5253C32.6083 32.1531 32.9374 31.6761 33.1325 31.1402C33.2899 30.7079 33.7678 30.485 34.2002 30.6422C34.6326 30.7996 34.8555 31.2775 34.6982 31.7099C34.4057 32.5137 33.9122 33.2292 33.2643 33.7875C32.6162 34.346 31.8354 34.7295 30.9971 34.9C30.1588 35.0706 29.2906 35.0232 28.4759 34.7625C27.6612 34.5017 26.9272 34.0356 26.3437 33.4099C25.7603 32.7843 25.3467 32.0192 25.1434 31.1883C24.9401 30.3574 24.9531 29.4881 25.1816 28.6638C25.4103 27.8395 25.8473 27.088 26.4495 26.4804C27.0517 25.8729 27.7994 25.4296 28.6216 25.1938ZM33.5353 22.3398C33.7476 22.1275 34.0582 22.0456 34.3475 22.1258C34.6368 22.2059 34.8606 22.4359 34.9334 22.7272L35.4014 24.5989L37.2731 25.0668C37.5644 25.1397 37.7944 25.3635 37.8745 25.6528C37.9547 25.9421 37.8728 26.2527 37.6605 26.465L35.0091 29.1163C34.8302 29.2952 34.5794 29.3834 34.328 29.3556L32.0729 29.1049L30.5894 30.5893C30.2639 30.9147 29.7364 30.9147 29.411 30.5893C29.0855 30.2639 29.0855 29.7364 29.411 29.4109L30.8945 27.9265L30.6447 25.6731C30.6167 25.4215 30.7049 25.1702 30.884 24.9912L33.5353 22.3398ZM32.3455 25.8855L32.5221 27.4773L34.1139 27.6539L35.4404 26.3266L34.5119 26.0947C34.2134 26.02 33.9803 25.7868 33.9056 25.4884L33.6729 24.559L32.3455 25.8855Z" fill="white" fill-opacity="0.8"/>
</svg>
