<svg width="90" height="90" viewBox="0 0 90 90" fill="none" xmlns="http://www.w3.org/2000/svg">
<path d="M38.0168 4.03178C42.338 1.53691 47.662 1.53691 51.9832 4.03178L76.9879 18.4682C81.3091 20.9631 83.9711 25.5738 83.9711 30.5636V59.4364C83.9711 64.4262 81.3092 69.0369 76.9879 71.5318L51.9832 85.9682C47.662 88.4631 42.338 88.4631 38.0168 85.9682L13.0121 71.5318C8.69086 69.0369 6.02886 64.4262 6.02886 59.4364V30.5636C6.02886 25.5738 8.69086 20.9631 13.0121 18.4682L38.0168 4.03178Z" fill="black" fill-opacity="0.2"/>
<path d="M38.3916 4.68164C42.4808 2.32074 47.5192 2.32074 51.6084 4.68164L76.6133 19.1182C80.7022 21.4791 83.2207 25.8419 83.2207 30.5635V59.4365C83.2207 64.1581 80.7022 68.5209 76.6133 70.8818L51.6084 85.3184C47.5192 87.6793 42.4808 87.6793 38.3916 85.3184L13.3867 70.8818C9.29782 68.5209 6.77933 64.1581 6.7793 59.4365V30.5635C6.77933 25.8419 9.29782 21.4791 13.3867 19.1182L38.3916 4.68164Z" stroke="white" stroke-opacity="0.08" stroke-width="1.5"/>
<path fill-rule="evenodd" clip-rule="evenodd" d="M41.2485 36.25C41.2485 34.8693 42.3678 33.75 43.7485 33.75H46.2485C47.6292 33.75 48.7485 34.8693 48.7485 36.25V38.75C48.7485 39.8735 48.0075 40.8238 46.9875 41.139C46.5918 41.2613 46.2485 41.5858 46.2485 42V43C46.2485 43.4142 46.5843 43.75 46.9985 43.75H51.2485C52.6292 43.75 53.7485 44.8693 53.7485 46.25V48.75C55.1292 48.75 56.2485 49.8693 56.2485 51.25V53.75C56.2485 55.1307 55.1292 56.25 53.7485 56.25H51.2485C49.8678 56.25 48.7485 55.1307 48.7485 53.75V51.25C48.7485 49.8693 49.8678 48.75 51.2485 48.75V47C51.2485 46.5858 50.9127 46.25 50.4985 46.25H39.4985C39.0843 46.25 38.7485 46.5858 38.7485 47V48.75C40.1292 48.75 41.2485 49.8693 41.2485 51.25V53.75C41.2485 55.1307 40.1292 56.25 38.7485 56.25H36.2485C34.8678 56.25 33.7485 55.1307 33.7485 53.75V51.25C33.7485 49.8693 34.8678 48.75 36.2485 48.75V46.25C36.2485 44.8693 37.3678 43.75 38.7485 43.75H42.9985C43.4127 43.75 43.7485 43.4142 43.7485 43V42C43.7485 41.5858 43.4053 41.2613 43.0095 41.139C41.9896 40.8238 41.2485 39.8735 41.2485 38.75V36.25ZM46.2485 37C46.2485 36.5858 45.9127 36.25 45.4985 36.25H44.4985C44.0843 36.25 43.7485 36.5858 43.7485 37V38C43.7485 38.4142 44.0843 38.75 44.4985 38.75H45.4985C45.9127 38.75 46.2485 38.4142 46.2485 38V37ZM36.9985 51.25C36.5843 51.25 36.2485 51.5858 36.2485 52V53C36.2485 53.4142 36.5843 53.75 36.9985 53.75H37.9985C38.4127 53.75 38.7485 53.4142 38.7485 53V52C38.7485 51.5858 38.4127 51.25 37.9985 51.25H36.9985ZM51.9985 51.25C51.5843 51.25 51.2485 51.5858 51.2485 52V53C51.2485 53.4142 51.5843 53.75 51.9985 53.75H52.9985C53.4127 53.75 53.7485 53.4142 53.7485 53V52C53.7485 51.5858 53.4127 51.25 52.9985 51.25H51.9985Z" fill="white" fill-opacity="0.6"/>
</svg>
