<svg width="12" height="12" viewBox="0 0 12 12" fill="none" xmlns="http://www.w3.org/2000/svg">
<path fill-rule="evenodd" clip-rule="evenodd" d="M2.92398 1.16959C1.95506 1.16959 1.16959 1.95506 1.16959 2.92398V8.77193C1.16959 9.74088 1.95506 10.5263 2.92398 10.5263H7.45614V9.37901C7.45614 8.31708 8.31708 7.45614 9.37901 7.45614H10.5263V2.92398C10.5263 1.95505 9.74088 1.16959 8.77193 1.16959H2.92398ZM10.4104 8.62573H9.37901C8.96298 8.62573 8.62573 8.96298 8.62573 9.37901V10.4104L8.62754 10.4096C8.81357 10.3326 8.98251 10.2197 9.12485 10.0774L10.0773 9.12485C10.2197 8.98251 10.3326 8.81357 10.4096 8.62754L10.4104 8.62573ZM0 2.92398C0 1.30911 1.30911 0 2.92398 0H8.77193C10.3868 0 11.6959 1.30911 11.6959 2.92398V8.04094C11.6959 8.39585 11.626 8.74725 11.4902 9.07515C11.3544 9.40304 11.1553 9.70094 10.9043 9.95193L9.95193 10.9043C9.70099 11.1553 9.40304 11.3544 9.07515 11.4902C8.74725 11.626 8.39585 11.6959 8.04094 11.6959H2.92398C1.30911 11.6959 0 10.3868 0 8.77193V2.92398ZM2.63158 3.21637C2.63158 2.8934 2.8934 2.63158 3.21637 2.63158H8.47953C8.80251 2.63158 9.06433 2.8934 9.06433 3.21637C9.06433 3.53934 8.80251 3.80117 8.47953 3.80117H3.21637C2.8934 3.80117 2.63158 3.53934 2.63158 3.21637ZM2.63158 5.84795C2.63158 5.52497 2.8934 5.26316 3.21637 5.26316H8.47953C8.80251 5.26316 9.06433 5.52497 9.06433 5.84795C9.06433 6.17094 8.80251 6.43275 8.47953 6.43275H3.21637C2.8934 6.43275 2.63158 6.17094 2.63158 5.84795ZM2.63158 8.47953C2.63158 8.15655 2.8934 7.89474 3.21637 7.89474H6.14035C6.46333 7.89474 6.72515 8.15655 6.72515 8.47953C6.72515 8.80251 6.46333 9.06433 6.14035 9.06433H3.21637C2.8934 9.06433 2.63158 8.80251 2.63158 8.47953Z" fill="black"/>
</svg>
