<svg width="8" height="5" viewBox="0 0 8 5" fill="none" xmlns="http://www.w3.org/2000/svg">
<path fill-rule="evenodd" clip-rule="evenodd" d="M3.47251 4.31362C3.58218 4.42325 3.7309 4.48484 3.88596 4.48484C4.04103 4.48484 4.18975 4.42325 4.29941 4.31362L7.6076 1.00543C7.66346 0.951486 7.70801 0.886957 7.73866 0.81561C7.7693 0.744263 7.78544 0.667526 7.78611 0.589877C7.78679 0.512228 7.77199 0.435223 7.74258 0.363354C7.71318 0.291484 7.66976 0.22619 7.61485 0.171282C7.55994 0.116374 7.49465 0.0729516 7.42278 0.0435476C7.35091 0.0141435 7.2739 -0.000652666 7.19626 2.20801e-05C7.11861 0.000696827 7.04187 0.0168292 6.97052 0.0474777C6.89918 0.0781262 6.83465 0.122677 6.7807 0.178531L3.88596 3.07327L0.991227 0.178531C0.880933 0.0720058 0.733213 0.0130617 0.579882 0.0143941C0.426551 0.0157265 0.279877 0.0772287 0.171451 0.185655C0.063025 0.29408 0.00152254 0.440754 0.000189781 0.594086C-0.0011425 0.747417 0.0578017 0.895138 0.164327 1.00543L3.47251 4.31362Z" fill="black"/>
</svg>
