<svg width="12" height="12" viewBox="0 0 12 12" fill="none" xmlns="http://www.w3.org/2000/svg">
<path d="M4.02339 4.64327L4.33333 4.95322C4.50292 5.12281 4.78363 5.12281 4.95322 4.95322C5.12281 4.78363 5.12281 4.50292 4.95322 4.33333L4.4386 3.81871C4.38449 3.7645 4.32023 3.72149 4.24949 3.69214C4.17874 3.6628 4.10291 3.64769 4.02632 3.64769C3.94973 3.64769 3.87389 3.6628 3.80314 3.69214C3.7324 3.72149 3.66814 3.7645 3.61404 3.81871L3.09357 4.33333C2.92398 4.50292 2.92398 4.78363 3.09357 4.95322C3.26316 5.12281 3.54386 5.12281 3.71345 4.95322L4.02339 4.64327ZM5.84795 9.06433C7.03509 9.06433 8.07018 8.4152 8.62573 7.45614C8.73684 7.26316 8.59649 7.01754 8.36842 7.01754H3.32749C3.10526 7.01754 2.95906 7.26316 3.07018 7.45614C3.62573 8.4152 4.66082 9.06433 5.84795 9.06433ZM6.74269 4.95322C6.91228 5.12281 7.19298 5.12281 7.36257 4.95322L7.67251 4.64327L7.98246 4.95322C8.15205 5.12281 8.43275 5.12281 8.60234 4.95322C8.77193 4.78363 8.77193 4.50292 8.60234 4.33333L8.08772 3.81871C8.03362 3.7645 7.96936 3.72149 7.89861 3.69214C7.82787 3.6628 7.75203 3.64769 7.67544 3.64769C7.59885 3.64769 7.52301 3.6628 7.45227 3.69214C7.38152 3.72149 7.31726 3.7645 7.26316 3.81871L6.74854 4.33333C6.5731 4.50292 6.5731 4.78363 6.74269 4.95322ZM5.8421 0C2.61403 0 0 2.61403 0 5.84795C0 9.08187 2.61403 11.6959 5.8421 11.6959C9.07018 11.6959 11.6959 9.08187 11.6959 5.84795C11.6959 2.61403 9.07602 0 5.8421 0ZM5.84795 10.5263C3.26316 10.5263 1.16959 8.43275 1.16959 5.84795C1.16959 3.26316 3.26316 1.16959 5.84795 1.16959C8.43275 1.16959 10.5263 3.26316 10.5263 5.84795C10.5263 8.43275 8.43275 10.5263 5.84795 10.5263Z" fill="black"/>
</svg>
