<svg width="9" height="11" viewBox="0 0 9 11" fill="none" xmlns="http://www.w3.org/2000/svg">
<path fill-rule="evenodd" clip-rule="evenodd" d="M5.07579 2.30793L1.82877 5.55491H3.18304C3.64824 5.55491 3.98415 6.00023 3.85637 6.4476L3.35041 8.21836L6.59743 4.97134H5.24316C4.77795 4.97134 4.44205 4.52608 4.56982 4.07871L5.07579 2.30793ZM5.52444 0.208683C6.03538 -0.302276 6.89146 0.201449 6.69298 0.896239L5.8621 3.80424H7.7245C8.34836 3.80424 8.66082 4.55854 8.21971 4.99971L2.90175 10.3177C2.39079 10.8286 1.53472 10.3249 1.73324 9.63006L2.5641 6.72205H0.701683C0.077806 6.72205 -0.234645 5.96778 0.206513 5.52661L5.52444 0.208683Z" fill="black"/>
</svg>
