<svg width="80" height="80" viewBox="0 0 80 80" fill="none" xmlns="http://www.w3.org/2000/svg">
<path d="M33.7927 3.58381C37.6338 1.36614 42.3662 1.36614 46.2073 3.5838L68.4337 16.4162C72.2748 18.6339 74.641 22.7323 74.641 27.1676V52.8324C74.641 57.2677 72.2748 61.3661 68.4337 63.5838L46.2073 76.4162C42.3662 78.6339 37.6338 78.6339 33.7927 76.4162L11.5663 63.5838C7.72521 61.3661 5.35898 57.2677 5.35898 52.8324V27.1676C5.35898 22.7323 7.7252 18.6339 11.5663 16.4162L33.7927 3.58381Z" fill="black" fill-opacity="0.2"/>
<path d="M34.126 4.16113C37.7608 2.06256 42.2392 2.06256 45.874 4.16113L68.1006 16.9932C71.7354 19.0917 73.9746 22.9708 73.9746 27.168V52.832C73.9746 57.0292 71.7354 60.9083 68.1006 63.0068L45.874 75.8389C42.2392 77.9374 37.7608 77.9374 34.126 75.8389L11.8994 63.0068C8.26458 60.9083 6.02539 57.0292 6.02539 52.832V27.168C6.02539 22.9708 8.26458 19.0917 11.8994 16.9932L34.126 4.16113Z" stroke="white" stroke-opacity="0.08" stroke-width="1.33333"/>
<path d="M33 49C32.45 49 31.9792 48.8042 31.5875 48.4125C31.1958 48.0208 31 47.55 31 47V33C31 32.45 31.1958 31.9792 31.5875 31.5875C31.9792 31.1958 32.45 31 33 31H47C47.55 31 48.0208 31.1958 48.4125 31.5875C48.8042 31.9792 49 32.45 49 33V47C49 47.55 48.8042 48.0208 48.4125 48.4125C48.0208 48.8042 47.55 49 47 49H33ZM33 46.0643C33 46.5811 33.4189 47 33.9357 47H46.0643C46.5811 47 47 46.5811 47 46.0643V43H44C43.5 43.6333 42.9042 44.125 42.2125 44.475C41.5208 44.825 40.7833 45 40 45C39.2167 45 38.4792 44.825 37.7875 44.475C37.0958 44.125 36.5 43.6333 36 43H33V46.0643ZM40 43C40.5333 43 41.025 42.8625 41.475 42.5875C41.925 42.3125 42.2917 41.95 42.575 41.5C42.675 41.35 42.8 41.2292 42.95 41.1375C43.1 41.0458 43.2667 41 43.45 41H47V33.9357C47 33.4189 46.5811 33 46.0643 33H33.9357C33.4189 33 33 33.4189 33 33.9357V41H36.55C36.7333 41 36.9 41.0458 37.05 41.1375C37.2 41.2292 37.325 41.35 37.425 41.5C37.7083 41.95 38.075 42.3125 38.525 42.5875C38.975 42.8625 39.4667 43 40 43Z" fill="white" fill-opacity="0.6"/>
</svg>
