<svg width="90" height="90" viewBox="0 0 90 90" fill="none" xmlns="http://www.w3.org/2000/svg">
<path d="M38.0168 4.03178C42.338 1.53691 47.662 1.53691 51.9832 4.03178L76.9879 18.4682C81.3091 20.9631 83.9711 25.5738 83.9711 30.5636V59.4364C83.9711 64.4262 81.3092 69.0369 76.9879 71.5318L51.9832 85.9682C47.662 88.4631 42.338 88.4631 38.0168 85.9682L13.0121 71.5318C8.69086 69.0369 6.02886 64.4262 6.02886 59.4364V30.5636C6.02886 25.5738 8.69086 20.9631 13.0121 18.4682L38.0168 4.03178Z" fill="black" fill-opacity="0.2"/>
<path d="M38.3916 4.68164C42.4808 2.32074 47.5192 2.32074 51.6084 4.68164L76.6133 19.1182C80.7022 21.4791 83.2207 25.8419 83.2207 30.5635V59.4365C83.2207 64.1581 80.7022 68.5209 76.6133 70.8818L51.6084 85.3184C47.5192 87.6793 42.4808 87.6793 38.3916 85.3184L13.3867 70.8818C9.29782 68.5209 6.77933 64.1581 6.7793 59.4365V30.5635C6.77933 25.8419 9.29782 21.4791 13.3867 19.1182L38.3916 4.68164Z" stroke="white" stroke-opacity="0.08" stroke-width="1.5"/>
<path d="M49.8938 45.9629C50.2997 45.8179 50.5722 45.4303 50.5722 44.9994C50.5722 44.5685 50.2997 44.1809 49.8954 44.0359L48.0368 43.3658C47.1325 43.0414 46.3113 42.5209 45.632 41.8416C44.9527 41.1623 44.4322 40.341 44.1078 39.4368L43.4377 37.5781C43.366 37.3804 43.2353 37.2095 43.0632 37.0884C42.8912 36.9674 42.6862 36.9021 42.4758 36.9014C42.0458 36.9014 41.6582 37.1731 41.5115 37.5781L40.8422 39.4368C40.5179 40.3412 39.9973 41.1626 39.3178 41.8419C38.6384 42.5212 37.8169 43.0417 36.9124 43.3658L35.0554 44.0359C34.6495 44.1818 34.377 44.5685 34.377 44.9994C34.377 45.4303 34.6495 45.8171 35.0537 45.9629L36.9124 46.633C37.8167 46.9573 38.638 47.4778 39.3173 48.1571C39.9966 48.8364 40.5171 49.6577 40.8414 50.562L41.5115 52.4215C41.6574 52.8258 42.0449 53.0975 42.475 53.0975C42.9051 53.0975 43.2926 52.8249 43.4377 52.4207L44.1078 50.562C44.4322 49.6578 44.9527 48.8365 45.632 48.1572C46.3113 47.4779 47.1325 46.9574 48.0368 46.633L49.8938 45.9629ZM47.0333 37.884L47.9743 38.2233C48.3752 38.3671 48.7393 38.5979 49.0404 38.8991C49.3416 39.2002 49.5724 39.5643 49.7162 39.9652L50.0546 40.9054C50.1872 41.2738 50.5389 41.5213 50.9298 41.5213C51.3207 41.5213 51.6732 41.2738 51.8049 40.9062L52.1442 39.9652C52.2878 39.5642 52.5186 39.2001 52.8198 38.8989C53.121 38.5977 53.4851 38.3669 53.8861 38.2233L54.8279 37.884C55.1938 37.7515 55.4414 37.4006 55.4422 37.0114C55.4431 36.6221 55.198 36.2696 54.8279 36.1346L53.8861 35.7953C53.4853 35.6514 53.1212 35.4206 52.8201 35.1194C52.5189 34.8183 52.2881 34.4542 52.1442 34.0534L51.8049 33.1124C51.7395 32.9329 51.6205 32.7779 51.4641 32.6684C51.3076 32.5589 51.1212 32.5001 50.9302 32.5001C50.7392 32.5001 50.5528 32.5589 50.3963 32.6684C50.2399 32.7779 50.1209 32.9329 50.0555 33.1124L49.7162 34.0534C49.5724 34.4543 49.3416 34.8184 49.0404 35.1195C48.7393 35.4207 48.3752 35.6515 47.9743 35.7953L47.0308 36.1354C46.6641 36.2688 46.4173 36.6213 46.4182 37.0114C46.419 37.4014 46.6666 37.7523 47.0333 37.884ZM54.8271 52.1148L53.8861 51.7756C53.4853 51.6316 53.1212 51.4008 52.8201 51.0996C52.5189 50.7985 52.2881 50.4344 52.1442 50.0336L51.8049 49.0926C51.7393 48.9132 51.6202 48.7584 51.4637 48.6489C51.3071 48.5395 51.1208 48.4808 50.9298 48.4808C50.7388 48.4808 50.5524 48.5395 50.3959 48.6489C50.2394 48.7584 50.1202 48.9132 50.0546 49.0926L49.7154 50.0336C49.5717 50.4346 49.341 50.7988 49.0398 51.1C48.7386 51.4011 48.3744 51.6319 47.9734 51.7756L47.0333 52.114C46.6657 52.2457 46.4182 52.5974 46.4173 52.9874C46.4165 53.3775 46.6624 53.7301 47.0325 53.8643L47.9734 54.2035C48.3745 54.3471 48.7387 54.5778 49.0399 54.879C49.3411 55.1802 49.5718 55.5444 49.7154 55.9454L50.0538 56.8856C50.119 57.0656 50.238 57.2211 50.3947 57.3311C50.5514 57.441 50.7381 57.5 50.9295 57.5001C51.1209 57.5002 51.3077 57.4414 51.4645 57.3316C51.6212 57.2218 51.7404 57.0663 51.8058 56.8864L52.145 55.9454C52.2889 55.5446 52.5198 55.1806 52.8209 54.8794C53.1221 54.5783 53.4861 54.3474 53.887 54.2035L54.8321 53.8634C55.198 53.7292 55.4439 53.3775 55.4431 52.9874C55.4422 52.5974 55.1938 52.2473 54.8271 52.1148Z" fill="#90909B"/>
</svg>
