<svg width="12" height="12" viewBox="0 0 12 12" fill="none" xmlns="http://www.w3.org/2000/svg">
<path fill-rule="evenodd" clip-rule="evenodd" d="M0 2.92398C0 1.30911 1.30911 0 2.92398 0H8.77193C10.3868 0 11.6959 1.30911 11.6959 2.92398V8.77193C11.6959 10.3868 10.3868 11.6959 8.77193 11.6959H2.92398C1.30911 11.6959 0 10.3868 0 8.77193V2.92398ZM2.92398 1.16959C1.95506 1.16959 1.16959 1.95506 1.16959 2.92398V8.77193C1.16959 8.96725 1.2015 9.15509 1.26039 9.33053L3.26901 7.98251C3.73684 7.66672 4.39766 7.70181 4.81287 8.06439L5.0117 8.22813C5.46784 8.61994 6.20468 8.61994 6.66082 8.22813L9.09357 6.14041C9.48298 5.80585 10.077 5.75696 10.5263 5.99363V2.92398C10.5263 1.95506 9.74088 1.16959 8.77193 1.16959H2.92398Z" fill="black"/>
</svg>
