<svg width="11" height="11" viewBox="0 0 11 11" fill="none" xmlns="http://www.w3.org/2000/svg">
<path fill-rule="evenodd" clip-rule="evenodd" d="M2.92398 2.33918C2.92398 1.71879 3.17043 1.12381 3.60911 0.68513C4.04779 0.246449 4.64277 0 5.26316 0C5.88355 0 6.47853 0.246449 6.91721 0.68513C7.35589 1.12381 7.60234 1.71879 7.60234 2.33918C7.60234 2.95957 7.35589 3.55455 6.91721 3.99323C6.47853 4.43191 5.88355 4.67836 5.26316 4.67836C4.64277 4.67836 4.04779 4.43191 3.60911 3.99323C3.17043 3.55455 2.92398 2.95957 2.92398 2.33918ZM2.92398 5.84795C2.14849 5.84795 1.40476 6.15601 0.856413 6.70437C0.308061 7.25272 0 7.99644 0 8.77193C0 9.23722 0.184837 9.68346 0.513848 10.0125C0.842859 10.3415 1.28909 10.5263 1.75439 10.5263H8.77193C9.23722 10.5263 9.68346 10.3415 10.0125 10.0125C10.3415 9.68346 10.5263 9.23722 10.5263 8.77193C10.5263 7.99644 10.2183 7.25272 9.6699 6.70437C9.12155 6.15601 8.37783 5.84795 7.60234 5.84795H2.92398Z" fill="black"/>
</svg>
