<svg width="11" height="11" viewBox="0 0 11 11" fill="none" xmlns="http://www.w3.org/2000/svg">
<path d="M1.16959 10.5263C0.847953 10.5263 0.572612 10.4118 0.343567 10.1827C0.114522 9.9537 0 9.67836 0 9.35672L0 1.16959C0 0.847953 0.114522 0.572612 0.343567 0.343567C0.572612 0.114522 0.847953 0 1.16959 0L9.35672 0C9.67836 0 9.9537 0.114522 10.1827 0.343567C10.4118 0.572612 10.5263 0.847953 10.5263 1.16959V9.35672C10.5263 9.67836 10.4118 9.9537 10.1827 10.1827C9.9537 10.4118 9.67836 10.5263 9.35672 10.5263H1.16959ZM1.16959 8.65497C1.16959 9.04254 1.48378 9.35672 1.87135 9.35672H8.65497C9.04254 9.35672 9.35672 9.04254 9.35672 8.65497V7.01754H7.60234C7.30994 7.38791 6.9615 7.67544 6.55702 7.88012C6.15253 8.08479 5.72125 8.18713 5.26316 8.18713C4.80507 8.18713 4.37378 8.08479 3.9693 7.88012C3.56481 7.67544 3.21637 7.38791 2.92398 7.01754H1.16959V8.65497ZM5.26316 7.01754C5.57505 7.01754 5.86257 6.93713 6.12573 6.77632C6.38889 6.6155 6.60331 6.40351 6.76901 6.14035C6.82749 6.05263 6.90058 5.98197 6.9883 5.92836C7.07602 5.87476 7.17349 5.84795 7.2807 5.84795H9.35672V1.87135C9.35672 1.48378 9.04254 1.16959 8.65497 1.16959H1.87135C1.48378 1.16959 1.16959 1.48378 1.16959 1.87134V5.84795H3.24561C3.35283 5.84795 3.45029 5.87476 3.53801 5.92836C3.62573 5.98197 3.69883 6.05263 3.75731 6.14035C3.923 6.40351 4.13743 6.6155 4.40058 6.77632C4.66374 6.93713 4.95127 7.01754 5.26316 7.01754Z" fill="black"/>
</svg>
