<svg width="9" height="12" viewBox="0 0 9 12" fill="none" xmlns="http://www.w3.org/2000/svg">
<path d="M4.0473 7.01754C5.01806 7.01754 5.80169 6.23392 5.80169 5.26316V1.75439C5.80169 0.783626 5.01806 0 4.0473 0C3.07654 0 2.29292 0.783626 2.29292 1.75439V5.26316C2.29292 6.23392 3.07654 7.01754 4.0473 7.01754ZM7.50344 5.26316C7.21689 5.26316 6.97713 5.47368 6.93034 5.76023C6.69058 7.1345 5.49174 8.18713 4.0473 8.18713C2.60286 8.18713 1.40403 7.1345 1.16426 5.76023C1.11748 5.47368 0.877711 5.26316 0.591161 5.26316C0.234436 5.26316 -0.0462661 5.57895 0.00636546 5.92982C0.292915 7.68421 1.69642 9.05848 3.46251 9.30994V10.5263C3.46251 10.848 3.72566 11.1111 4.0473 11.1111C4.36894 11.1111 4.6321 10.848 4.6321 10.5263V9.30994C6.39818 9.05848 7.80169 7.68421 8.08824 5.92982C8.14672 5.57895 7.86017 5.26316 7.50344 5.26316Z" fill="black"/>
</svg>
