<svg width="12" height="12" viewBox="0 0 12 12" fill="none" xmlns="http://www.w3.org/2000/svg">
<path fill-rule="evenodd" clip-rule="evenodd" d="M8.7548 1.1679C9.44757 1.23088 9.99644 1.77975 10.0594 2.47251L10.2858 4.96324C10.3246 5.38916 10.1721 5.81026 9.8697 6.11262L6.11214 9.87024C5.54942 10.433 4.63702 10.433 4.07427 9.87024L1.35712 7.15305C0.794372 6.59033 0.794372 5.67791 1.35712 5.1152L5.11471 1.35761C5.41707 1.05521 5.83817 0.902753 6.26409 0.941471L8.7548 1.1679ZM9.10273 2.55949C9.08173 2.32857 8.89876 2.14561 8.66783 2.12462L6.17712 1.89819C6.03513 1.88528 5.89478 1.9361 5.79396 2.0369L2.03641 5.7945C1.84882 5.98205 1.84882 6.28619 2.03641 6.47375L4.75359 9.19094C4.94114 9.3785 5.24528 9.3785 5.43284 9.19094L9.19045 5.43337C9.29122 5.33255 9.34203 5.1922 9.32916 5.05022L9.10273 2.55949ZM7.47073 3.75661C7.28313 3.56903 6.97904 3.56903 6.79143 3.75661C6.60383 3.94419 6.60383 4.24832 6.79143 4.4359C6.97904 4.62348 7.28313 4.62348 7.47073 4.4359C7.65829 4.24832 7.65829 3.94419 7.47073 3.75661ZM6.11214 3.07732C6.6749 2.51458 7.58727 2.51458 8.15003 3.07732C8.71274 3.64006 8.71274 4.55245 8.15003 5.1152C7.58727 5.67791 6.6749 5.67791 6.11214 5.1152C5.54942 4.55245 5.54942 3.64006 6.11214 3.07732Z" fill="#007AEC"/>
</svg>
