<svg width="13" height="13" viewBox="0 0 13 13" fill="none" xmlns="http://www.w3.org/2000/svg">
<path fill-rule="evenodd" clip-rule="evenodd" d="M0 2.1345C0 1.16558 0.785465 0.380117 1.75439 0.380117H6.43275C6.75572 0.380117 7.01754 0.641939 7.01754 0.964912C7.01754 1.28789 6.75572 1.54971 6.43275 1.54971H1.75439C1.43141 1.54971 1.16959 1.81153 1.16959 2.1345V10.3216C1.16959 10.6446 1.43141 10.9064 1.75439 10.9064H9.94152C10.2645 10.9064 10.5263 10.6446 10.5263 10.3216V5.64327C10.5263 5.3203 10.7881 5.05848 11.1111 5.05848C11.4341 5.05848 11.6959 5.3203 11.6959 5.64327V10.3216C11.6959 11.2906 10.9104 12.076 9.94152 12.076H1.75439C0.785466 12.076 0 11.2906 0 10.3216V2.1345Z" fill="black"/>
<path fill-rule="evenodd" clip-rule="evenodd" d="M10.1605 1.49746C10.0463 1.38327 9.86113 1.38327 9.74694 1.49746L9.33343 1.91097L10.1605 2.738L10.574 2.32449C10.6882 2.2103 10.6882 2.02516 10.574 1.91097L10.1605 1.49746ZM9.33343 3.56503L8.5064 2.738L3.50877 7.73563V8.56265H4.3358L9.33343 3.56503ZM9.33343 0.256924C9.67599 -0.0856413 10.2314 -0.0856413 10.574 0.256924L11.8145 1.49746C12.1571 1.84003 12.1571 2.39544 11.8145 2.738L4.99154 9.56096C4.88187 9.67063 4.73313 9.73224 4.57803 9.73224H2.92398C2.601 9.73224 2.33918 9.47042 2.33918 9.14745V7.4934C2.33918 7.3383 2.40079 7.18956 2.51046 7.07988L9.33343 0.256924Z" fill="black"/>
</svg>
