<svg width="12" height="12" viewBox="0 0 12 12" fill="none" xmlns="http://www.w3.org/2000/svg">
<path d="M5.84795 0C2.61988 0 0 2.61988 0 5.84795C0 9.07602 2.61988 11.6959 5.84795 11.6959C9.07602 11.6959 11.6959 9.07602 11.6959 5.84795C11.6959 2.61988 9.07602 0 5.84795 0ZM7.95906 3.7076C8.58479 3.7076 9.08772 4.21053 9.08772 4.83626C9.08772 5.46199 8.58479 5.96491 7.95906 5.96491C7.33333 5.96491 6.83041 5.46199 6.83041 4.83626C6.82456 4.21053 7.33333 3.7076 7.95906 3.7076ZM4.45029 2.78363C5.21053 2.78363 5.83041 3.40351 5.83041 4.16374C5.83041 4.92398 5.21053 5.54386 4.45029 5.54386C3.69006 5.54386 3.07017 4.92398 3.07017 4.16374C3.07017 3.39766 3.68421 2.78363 4.45029 2.78363ZM4.45029 8.12281V10.3158C3.04678 9.87719 1.93567 8.79532 1.44444 7.4152C2.05848 6.76023 3.59064 6.4269 4.45029 6.4269C4.76023 6.4269 5.15205 6.47368 5.5614 6.55555C4.60234 7.06433 4.45029 7.73684 4.45029 8.12281ZM5.84795 10.5263C5.69006 10.5263 5.53801 10.5205 5.38596 10.5029V8.12281C5.38596 7.2924 7.10526 6.87719 7.95906 6.87719C8.58479 6.87719 9.66667 7.10526 10.2047 7.54971C9.52047 9.28655 7.83041 10.5263 5.84795 10.5263Z" fill="#AFBFC0"/>
</svg>
