<svg width="80" height="80" viewBox="0 0 80 80" fill="none" xmlns="http://www.w3.org/2000/svg">
<path d="M33.7927 3.58381C37.6338 1.36614 42.3662 1.36614 46.2073 3.5838L68.4337 16.4162C72.2748 18.6339 74.641 22.7323 74.641 27.1676V52.8324C74.641 57.2677 72.2748 61.3661 68.4337 63.5838L46.2073 76.4162C42.3662 78.6339 37.6338 78.6339 33.7927 76.4162L11.5663 63.5838C7.72521 61.3661 5.35898 57.2677 5.35898 52.8324V27.1676C5.35898 22.7323 7.7252 18.6339 11.5663 16.4162L33.7927 3.58381Z" fill="black" fill-opacity="0.2"/>
<path d="M34.126 4.16113C37.7608 2.06256 42.2392 2.06256 45.874 4.16113L68.1006 16.9932C71.7354 19.0917 73.9746 22.9708 73.9746 27.168V52.832C73.9746 57.0292 71.7354 60.9083 68.1006 63.0068L45.874 75.8389C42.2392 77.9374 37.7608 77.9374 34.126 75.8389L11.8994 63.0068C8.26458 60.9083 6.02539 57.0292 6.02539 52.832V27.168C6.02539 22.9708 8.26458 19.0917 11.8994 16.9932L34.126 4.16113Z" stroke="white" stroke-opacity="0.08" stroke-width="1.33333"/>
<path fill-rule="evenodd" clip-rule="evenodd" d="M37.2727 40.2728C39.2819 40.2728 40.9091 38.6455 40.9091 36.6364C40.9091 34.6273 39.2819 33 37.2727 33C35.2637 33 33.6364 34.6273 33.6364 36.6364C33.6364 38.6455 35.2637 40.2728 37.2727 40.2728ZM37.2727 34.8182C38.2728 34.8182 39.0909 35.6364 39.0909 36.6364C39.0909 37.6364 38.2728 38.4546 37.2727 38.4546C36.2727 38.4546 35.4546 37.6364 35.4546 36.6364C35.4546 35.6364 36.2727 34.8182 37.2727 34.8182ZM46.3636 36.6364C46.3636 38.6455 44.7363 40.2728 42.7272 40.2728C42.3 40.2728 41.9 40.1818 41.5182 40.0546C42.2727 39.1182 42.7272 37.9273 42.7272 36.6364C42.7272 35.3455 42.2727 34.1546 41.5182 33.2182C41.9 33.0909 42.3 33 42.7272 33C44.7363 33 46.3636 34.6273 46.3636 36.6364ZM46.3636 44.8182C46.3636 43.2909 45.4909 42.1455 44.2454 41.3C46.7545 41.6637 50 42.8364 50 44.8182V46.5455C50 47.0978 49.5523 47.5455 49 47.5455H47.3636C46.8113 47.5455 46.3636 47.0978 46.3636 46.5455V44.8182ZM30 44.8182C30 42.4 34.8455 41.1818 37.2727 41.1818C39.7 41.1818 44.5455 42.4 44.5455 44.8182V46.5455C44.5455 47.0978 44.0978 47.5455 43.5455 47.5455H31C30.4477 47.5455 30 47.0978 30 46.5455V44.8182ZM31.8182 44.8273V45.7273H42.7273V44.8182C42.5455 44.1728 39.7273 43 37.2727 43C34.8182 43 32 44.1728 31.8182 44.8273Z" fill="#90909B"/>
</svg>
