<svg width="11" height="11" viewBox="0 0 11 11" fill="none" xmlns="http://www.w3.org/2000/svg">
<path fill-rule="evenodd" clip-rule="evenodd" d="M1.75439 0C0.785466 0 0 0.785465 0 1.75439V8.77193C0 9.74085 0.785465 10.5263 1.75439 10.5263H8.77193C9.74085 10.5263 10.5263 9.74085 10.5263 8.77193V1.75439C10.5263 0.785466 9.74085 0 8.77193 0H1.75439ZM3.21637 1.16959H1.75439C1.43141 1.16959 1.16959 1.43141 1.16959 1.75439V8.77193C1.16959 9.0949 1.43141 9.35672 1.75439 9.35672H3.21637V1.16959ZM4.38596 9.35672H8.77193C9.0949 9.35672 9.35672 9.0949 9.35672 8.77193V1.75439C9.35672 1.43141 9.0949 1.16959 8.77193 1.16959H4.38596V9.35672Z" fill="black"/>
</svg>
