<svg width="12" height="12" viewBox="0 0 12 12" fill="none" xmlns="http://www.w3.org/2000/svg">
<path d="M5.84795 0C2.61988 0 0 2.61988 0 5.84795C0 9.07602 2.61988 11.6959 5.84795 11.6959C9.07602 11.6959 11.6959 9.07602 11.6959 5.84795C11.6959 2.61988 9.07602 0 5.84795 0ZM5.84795 2.33918C6.97661 2.33918 7.89474 3.25731 7.89474 4.38596C7.89474 5.51462 6.97661 6.43275 5.84795 6.43275C4.7193 6.43275 3.80117 5.51462 3.80117 4.38596C3.80117 3.25731 4.7193 2.33918 5.84795 2.33918ZM5.84795 10.5263C4.66082 10.5263 3.25731 10.0468 2.25731 8.8421C3.24561 8.07018 4.49123 7.60234 5.84795 7.60234C7.20468 7.60234 8.45029 8.07018 9.43859 8.8421C8.43859 10.0468 7.03509 10.5263 5.84795 10.5263Z" fill="#AFBFC0"/>
</svg>
