<svg width="10" height="10" viewBox="0 0 10 10" fill="none" xmlns="http://www.w3.org/2000/svg">
<path d="M4.6864 6.23623C3.82411 6.23623 3.12484 5.5382 3.12484 4.67745C3.12484 3.8167 3.82411 3.11867 4.6864 3.11867C5.54868 3.11867 6.24796 3.8167 6.24796 4.67745C6.24796 5.5382 5.54868 6.23623 4.6864 6.23623Z" fill="white"/>
<path fill-rule="evenodd" clip-rule="evenodd" d="M9.1237 7.74041C8.88033 8.36915 8.38237 8.86623 7.75251 9.10916C7.45586 9.22415 7.114 9.30494 6.61604 9.32679C6.11606 9.34893 5.95709 9.35439 4.68468 9.35439C3.41228 9.35439 3.25301 9.34893 2.75332 9.32679C2.25536 9.30494 1.91494 9.22444 1.61657 9.10944C1.30524 8.99272 1.02155 8.80787 0.787116 8.5704C0.549224 8.33638 0.364325 8.05493 0.24538 7.7407C0.12989 7.44487 0.0492482 7.10304 0.0273599 6.60597C0.00547156 6.10718 0 5.94819 0 4.67806C0 3.40792 0.00547177 3.24894 0.0293761 2.74813C0.0512645 2.25106 0.131906 1.91124 0.247108 1.6134C0.364325 1.30291 0.549224 1.01973 0.787116 0.785714C1.02155 0.546234 1.30351 0.363389 1.6183 0.244655C1.91494 0.129659 2.25709 0.0491613 2.75505 0.027312C3.25474 0.00546268 3.41429 0 4.68641 0C5.95853 0 6.11779 0.00546289 6.6195 0.0293247C7.11746 0.051174 7.45788 0.131671 7.75625 0.246668C8.06758 0.363389 8.35127 0.547959 8.5857 0.785714C8.82532 1.01944 9.00849 1.3009 9.12744 1.61513C9.24264 1.91124 9.32328 2.25278 9.34517 2.74985C9.34892 2.83093 9.3518 2.90309 9.35439 2.97237V6.29347C9.35064 6.3915 9.34661 6.48925 9.34143 6.60569C9.31954 7.10276 9.2389 7.44257 9.1237 7.74041ZM7.18859 1.61886C7.49906 1.61886 7.75078 1.86984 7.75078 2.17976C7.75078 2.48967 7.49877 2.74065 7.18859 2.74065C6.87841 2.74065 6.6267 2.48938 6.6267 2.17976C6.6267 1.87013 6.87812 1.61886 7.18859 1.61886ZM7.24965 4.67719C7.24965 6.09792 6.09792 7.24965 4.67719 7.24965C3.25646 7.24965 2.10474 6.09792 2.10474 4.67719C2.10474 3.25646 3.25646 2.10474 4.67719 2.10474C6.09792 2.10474 7.24965 3.25646 7.24965 4.67719Z" fill="white"/>
</svg>
