<svg width="12" height="12" viewBox="0 0 12 12" fill="none" xmlns="http://www.w3.org/2000/svg">
<path fill-rule="evenodd" clip-rule="evenodd" d="M0 2.92398C0 1.30911 1.30911 0 2.92398 0H8.77193C10.3868 0 11.6959 1.30911 11.6959 2.92398V8.77193C11.6959 10.3868 10.3868 11.6959 8.77193 11.6959H2.92398C1.30911 11.6959 0 10.3868 0 8.77193V2.92398ZM2.92398 1.16959C1.95506 1.16959 1.16959 1.95506 1.16959 2.92398V8.77193C1.16959 9.74088 1.95506 10.5263 2.92398 10.5263H8.77193C9.74088 10.5263 10.5263 9.74088 10.5263 8.77193V2.92398C10.5263 1.95506 9.74088 1.16959 8.77193 1.16959H2.92398ZM3.50877 4.3433V7.35257C3.50877 8.00468 4.19501 8.42883 4.77825 8.13719L7.78754 6.63251C8.43409 6.3093 8.43409 5.38661 7.78754 5.06339L4.77825 3.55872C4.19501 3.2671 3.50877 3.69122 3.50877 4.3433Z" fill="black"/>
</svg>
